<svg id="Capa_1" enable-background="new 0 0 512 512" height="512" viewBox="0 0 512 512" width="512" xmlns="http://www.w3.org/2000/svg"><g><g><g><path d="m244.835 121.312c8.863-42.4-36.934-89.871-103.724-106.852-67.927-17.27-80.672 16.546-91.588 59.481-4.367 17.177-7.773 33.208-5.946 47.371z" fill="#e8b66b"/><path d="m244.834 121.317h-43.915c8.865-42.405-36.93-89.875-103.722-106.855-2.63-.668-5.167-1.264-7.633-1.767 12.358-4.068 28.886-3.996 51.548 1.767 66.792 16.98 112.587 64.449 103.722 106.855z" fill="#d7a964"/></g><g><path d="m468.423 121.312c1.827-14.162-1.579-30.194-5.946-47.371-10.916-42.935-23.661-76.751-91.588-59.481-66.79 16.981-112.588 64.452-103.724 106.852z" fill="#e8b66b"/><g fill="#d7a964"><path d="m311.102 63.759v57.557h-43.936c-5.537-26.493 10.252-54.958 39.18-76.736 3.041 5.732 4.756 12.256 4.756 19.179z"/><path d="m468.427 121.317h-39.416c1.829-14.166-1.582-30.201-5.948-47.377-7.448-29.277-15.748-54.321-41.83-61.8 58.924-11.331 70.901 21.151 81.246 61.8 4.366 17.175 7.776 33.211 5.948 47.377z"/></g></g></g><path d="m290.557 121.312v-57.548c0-11.347-9.198-20.545-20.545-20.545h-28.023c-11.347 0-20.545 9.198-20.545 20.545v57.548z" fill="#fbcc85"/><path d="m290.557 63.759v57.557h-26.318v-57.557c0-11.341-9.204-20.545-20.545-20.545h26.318c11.351 0 20.545 9.204 20.545 20.545z" fill="#e8b66b"/><g><path d="m488.099 171.108v310.54c0 11.351-9.194 20.545-20.545 20.545h-423.108c-11.351 0-20.545-9.194-20.545-20.545v-310.54z" fill="#64e0c4"/><path d="m23.901 343.06c18.747 13.293 47.49 28.054 87.594 34.156 2.044.308 4.119.473 6.184.473 20.052 0 37.063-14.382 40.453-34.177l24.657-144.135h146.421l24.656 144.135c3.39 19.795 20.401 34.177 40.453 34.177 2.065 0 4.14-.164 6.184-.473 40.104-6.102 68.847-20.864 87.594-34.156v-171.952h-464.196z" fill="#27d1b3"/><path d="m218.844 171.108h74.312v331.085h-74.312z" fill="#fbcc85"/><path d="m264.237 171.108h28.919v331.085h-28.919z" fill="#e8b66b"/><path d="m218.844 171.108h74.312v28.27h-74.312z" fill="#e8b66b"/><path d="m494.227 178.835h-476.454c-5.673 0-10.273-4.599-10.273-10.273v-47.757c0-5.673 4.599-10.273 10.273-10.273h476.455c5.673 0 10.273 4.599 10.273 10.273v47.757c-.001 5.674-4.6 10.273-10.274 10.273z" fill="#fc5a95"/><path d="m205.1 110.533h101.8v68.302h-101.8z" fill="#fcd79f"/><path d="m278.696 110.533h28.204v68.302h-28.204z" fill="#fbcc85"/></g><g><g><path d="m95.229 103.829-79.817 186.67c-3.342 7.816-1.556 16.909 4.566 22.806 14.056 13.541 44.089 35.912 94.607 43.6 11.051 1.682 21.411-5.842 23.295-16.861l39.413-230.446c1.073-6.274-3.76-12.004-10.126-12.004h-62.494c-4.111.001-7.827 2.453-9.444 6.235z" fill="#fbcc85"/><path d="m177.298 109.595-39.416 230.445c-1.89 11.022-12.245 18.542-23.298 16.868-8.115-1.233-15.697-2.856-22.774-4.746 3.503-3.01 6.02-7.222 6.862-12.122l39.406-230.445c1.079-6.266-3.76-11.998-10.119-11.998h39.21c6.369 0 11.197 5.732 10.129 11.998z" fill="#e8b66b"/></g><g><path d="m416.771 103.829 79.817 186.671c3.342 7.816 1.556 16.909-4.566 22.806-14.056 13.541-44.089 35.912-94.607 43.6-11.051 1.682-21.411-5.842-23.295-16.861l-39.413-230.446c-1.073-6.274 3.76-12.004 10.126-12.004h62.493c4.112 0 7.828 2.452 9.445 6.234z" fill="#fbcc85"/><path d="m492.019 313.301c-14.053 13.55-44.09 35.913-94.6 43.607-6.492.986-12.748-1.202-17.186-5.424 35.543-10.006 57.835-27.068 69.371-38.183 6.122-5.896 7.91-14.988 4.571-22.805l-79.818-186.663c-1.623-3.78-5.331-6.236-9.451-6.236h42.416c4.119 0 7.828 2.455 9.451 6.236l79.818 186.663c3.338 7.817 1.551 16.908-4.572 22.805z" fill="#e8b66b"/></g></g><path d="m494.228 103.033h-18.354c-.981-9.45-3.178-19.342-6.127-30.939-5.583-21.961-11.825-42.773-26.685-56.062-16.433-14.694-39.954-17.502-74.021-8.841-29.932 7.609-56.919 21.485-76.897 39.378-5.136-6.596-13.144-10.851-22.132-10.851h-28.023c-8.987 0-16.994 4.254-22.13 10.848-7.507-6.723-16.026-12.92-25.448-18.461-3.571-2.1-8.167-.909-10.267 2.663-2.1 3.57-.908 8.167 2.663 10.267 10.386 6.108 19.529 13.048 27.225 20.626-.052.695-.087 1.395-.087 2.103v10.081c-12.424-9.366-26.786-17.663-42.868-24.735-3.79-1.669-8.216.056-9.885 3.846-1.667 3.792.055 8.218 3.847 9.885 19.114 8.405 35.551 18.589 48.855 30.269.016.014.034.026.051.041v9.884h-29.677c-.679-2.402-1.859-4.665-3.512-6.625-3.384-4.012-8.336-6.313-13.585-6.313h-62.494c-7.126 0-13.541 4.234-16.342 10.786l-.92 2.152h-36.18c.968-8.141 2.937-16.936 5.558-27.244 11.146-43.851 22.261-69.368 82.47-54.062 6.413 1.631 12.807 3.61 19.003 5.886 3.887 1.429 8.198-.564 9.626-4.455 1.428-3.888-.567-8.197-4.455-9.625-6.678-2.452-13.568-4.587-20.478-6.343-34.069-8.662-57.588-5.854-74.021 8.841-14.858 13.286-21.101 34.1-26.684 56.061-2.949 11.598-5.146 21.491-6.127 30.939h-18.355c-9.8 0-17.772 7.973-17.772 17.772v47.757c0 9.337 7.241 16.998 16.4 17.703v82.846l-7.884 18.439c-4.552 10.644-2.037 23.165 6.258 31.156.516.497 1.063 1.012 1.626 1.536v161.404c0 15.465 12.581 28.046 28.045 28.046h80.88c4.142 0 7.5-3.357 7.5-7.5s-3.358-7.5-7.5-7.5h-80.88c-7.193 0-13.045-5.853-13.045-13.046v-149.25c17.43 12.374 44.291 26.177 82.056 31.924 1.396.212 2.787.315 4.162.315 13.38 0 25.333-9.754 27.654-23.326l26.506-154.975h39.562v308.357h-53.023c-4.142 0-7.5 3.357-7.5 7.5s3.358 7.5 7.5 7.5h309.238c15.464 0 28.045-12.581 28.045-28.046v-161.401c.563-.524 1.111-1.039 1.627-1.537 8.294-7.991 10.809-20.512 6.258-31.156l-7.885-18.44v-82.845c9.159-.705 16.4-8.366 16.4-17.703v-47.757c0-9.8-7.973-17.773-17.772-17.773zm-479.228 65.53v-47.757c0-1.528 1.244-2.772 2.772-2.772h63.227l-22.791 53.302h-40.436c-1.528-.001-2.772-1.245-2.772-2.773zm36.794 17.772-20.394 47.696v-47.696zm118.107-78.001-39.414 230.446c-1.191 6.965-7.822 11.766-14.774 10.71-48.942-7.447-77.728-29.251-90.531-41.586-3.836-3.695-4.991-9.505-2.874-14.457l79.817-186.67c.437-1.022 1.437-1.683 2.549-1.683h31.226l-8.587 37.934c-.915 4.04 1.619 8.057 5.659 8.971.558.127 1.114.188 1.663.188 3.426 0 6.52-2.363 7.308-5.846l9.337-41.246h15.888c1.121 0 1.809.617 2.12.985.31.367.802 1.149.613 2.254zm27.699 63.001h-23.257l9.116-53.302h14.14v53.302zm175.136-149.606c28.786-7.317 47.956-5.575 60.326 5.485 11.709 10.471 17.157 28.952 22.146 48.575 2.296 9.033 4.496 18.467 5.552 27.244h-36.173l-.921-2.154c-2.802-6.551-9.216-10.784-16.341-10.784h-62.494c-5.249 0-10.2 2.301-13.585 6.313-1.653 1.96-2.832 4.223-3.512 6.625h-29.679v-9.83c2.759-1.871 16.701-10.89 39.533-18.402 3.935-1.294 6.075-5.533 4.78-9.468-1.294-3.934-5.531-6.075-9.468-4.78-15.565 5.12-27.375 10.924-34.846 15.106v-11.895c0-.71-.035-1.412-.088-2.109 18.467-18.181 44.964-32.348 74.77-39.926zm-35.079 149.606h-23.257v-53.302h14.141zm-108.714-107.571c0-7.193 5.852-13.045 13.045-13.045h28.023c7.193 0 13.045 5.852 13.045 13.045v39.27h-54.114v-39.27zm56.717 430.928h-59.32v-308.357h59.32zm13.739-323.357h-86.799v-53.302h86.799zm187.42 136.569c-12.805 12.335-41.593 34.139-90.532 41.586-6.964 1.061-13.584-3.746-14.774-10.71l-6.175-36.101c-.698-4.083-4.577-6.824-8.657-6.128-4.083.698-6.826 4.574-6.128 8.657l6.175 36.101c2.321 13.573 14.274 23.326 27.654 23.326 1.375 0 2.765-.104 4.161-.315 37.764-5.747 64.626-19.551 82.057-31.925v149.251c0 7.193-5.852 13.046-13.045 13.046h-166.895v-308.357h39.562l14.784 86.438c.698 4.083 4.573 6.822 8.657 6.128 4.083-.698 6.826-4.574 6.128-8.657l-27.691-161.909c-.189-1.105.304-1.888.613-2.256.311-.367.998-.984 2.119-.984h13.903l5.738 29.23c.702 3.577 3.839 6.057 7.352 6.057.479 0 .965-.046 1.452-.142 4.064-.798 6.713-4.739 5.915-8.804l-5.171-26.342h33.305c1.111 0 2.112.66 2.549 1.682l79.816 186.671c2.118 4.952.963 10.762-2.872 14.457zm-26.613-121.569h20.394v47.694zm36.794-17.772c0 1.528-1.244 2.772-2.772 2.772h-40.435l-22.791-53.302h63.226c1.528 0 2.772 1.244 2.772 2.772z"/></g></svg>