<svg id="Capa_1" enable-background="new 0 0 512 512" height="512" viewBox="0 0 512 512" width="512" xmlns="http://www.w3.org/2000/svg"><g><g><g><path d="m153.975 71.969v86.531c0 13.389-10.854 24.242-24.242 24.242h-86.531z" fill="#97e4f9"/></g></g><g><path d="m123.117 102.827v55.673c0 13.389-10.854 24.242-24.242 24.242h30.858c13.389 0 24.242-10.854 24.242-24.242v-86.531z" fill="#0acefa"/></g><g><g><path d="m153.975 71.969h172.397c15.29 0 27.685 12.395 27.685 27.685v377.194c0 15.29-12.395 27.685-27.685 27.685h-255.485c-15.29 0-27.685-12.395-27.685-27.685v-294.106h86.531c13.389 0 24.242-10.854 24.242-24.242z" fill="#dcf5ff"/></g></g><g><path d="m326.371 71.969h-11.055v366.139c0 15.29-12.395 27.685-27.685 27.685h-244.429v11.055c0 15.29 12.395 27.685 27.685 27.685h255.484c15.29 0 27.685-12.395 27.685-27.685v-377.194c.001-15.29-12.394-27.685-27.685-27.685z" fill="#97e4f9"/></g><g><path d="m385.781 205.877 7.223 24.636c1.331 4.539-3.934 8.121-7.668 5.218l-20.268-15.759-29.956-44.018 20.712-14.096z" fill="#fc8e80"/></g><g><path d="m393.004 230.513-7.223-24.637-29.956-44.018-7.734 5.263 26.374 38.755 7.223 24.637c.254.867.266 1.698.096 2.456l3.552 2.762c3.734 2.904 8.999-.679 7.668-5.218z" fill="#fc6b55"/></g><g><path d="m431.856 40.148c-22.074-20.982-51.366-32.682-81.821-32.682h-34.456c-25.143 0-49.636 7.979-69.954 22.789l-40.978 29.868c-13.051 9.513-20.769 24.69-20.769 40.84 0 20.59 12.491 39.121 31.577 46.845l41 16.595c3.414 1.382 5.912 4.324 6.859 7.883 4.141 15.565 18.328 27.033 35.197 27.033h121.098c27.167 0 49.189-22.023 49.189-49.189v-23.9c0-32.544-13.354-63.662-36.942-86.082z" fill="#fc8e80"/></g><g><g><path d="m431.856 40.148c-9.207-8.752-19.673-15.881-30.952-21.228 18.854 21.553 29.379 49.305 29.379 78.186v23.9c0 27.167-22.023 49.189-49.189 49.189h-118.55c.317.667.578 1.365.771 2.091 4.141 15.565 18.328 27.033 35.197 27.033h121.098c27.167 0 49.189-22.023 49.189-49.189v-23.9c-.001-32.544-13.355-63.662-36.943-86.082z" fill="#fc6b55"/></g></g><g><path d="m354.057 248.24c-4.123 0-7.466 3.342-7.466 7.466v221.143c0 11.149-9.07 20.219-20.219 20.219h-200.857c-4.123 0-7.466 3.342-7.466 7.466s3.343 7.466 7.466 7.466h200.856c19.382 0 35.151-15.769 35.151-35.151v-221.143c0-4.123-3.342-7.466-7.465-7.466z"/><path d="m203.476 264.656c4.123 0 7.466-3.342 7.466-7.466s-3.343-7.466-7.466-7.466h-38.567c-4.123 0-7.466 3.342-7.466 7.466s3.343 7.466 7.466 7.466z"/><path d="m282.428 414.737h-38.567c-4.123 0-7.466 3.342-7.466 7.466s3.343 7.466 7.466 7.466h38.567c4.123 0 7.466-3.342 7.466-7.466s-3.343-7.466-7.466-7.466z"/><path d="m82.8 301.439c0 4.124 3.343 7.466 7.466 7.466h192.162c4.123 0 7.466-3.342 7.466-7.466s-3.343-7.466-7.466-7.466h-192.162c-4.124 0-7.466 3.343-7.466 7.466z"/><path d="m90.266 349.16h192.162c4.123 0 7.466-3.342 7.466-7.466s-3.343-7.466-7.466-7.466h-192.162c-4.123 0-7.466 3.342-7.466 7.466s3.342 7.466 7.466 7.466z"/><path d="m90.266 389.415h192.162c4.123 0 7.466-3.342 7.466-7.466s-3.343-7.466-7.466-7.466h-192.162c-4.123 0-7.466 3.342-7.466 7.466s3.342 7.466 7.466 7.466z"/><path d="m436.999 34.736c-7.52-7.147-15.913-13.355-24.946-18.45-3.591-2.026-8.144-.756-10.17 2.835s-.757 8.144 2.835 10.17c7.964 4.492 15.364 9.965 21.995 16.269 1.714 1.629 3.364 3.316 4.962 5.044l-37.001 18.878c-4.929 2.516-10.854 1.843-15.095-1.711l-15.411-12.916-.225-17.37c-.053-4.091-3.385-7.37-7.464-7.37-.033 0-.066 0-.099.001-4.123.052-7.422 3.438-7.369 7.561l.199 15.358-19.071 6.417c-3.908 1.315-6.01 5.549-4.695 9.457 1.314 2.613 4.398 6.255 9.457 4.695l20.258-6.816 14.828 12.427c8.247 6.817 20.574 8.992 31.472 3.568l6.958-3.55 2.158 12.34c.479 2.828 4.08 6.841 8.64 6.068 4.062-.711 6.779-4.579 6.068-8.64l-2.95-16.868 18.905-9.645c12.933 18.561 20.093 40.881 20.093 63.743v22.963l-15.54-15.519 3.75-17.023c.887-4.027-1.658-8.01-5.685-8.897-4.029-.889-8.01 1.657-8.897 5.685l-3.341 15.163-13.754.01c-4.123.003-7.464 3.348-7.461 7.471.003 4.122 3.345 7.461 7.466 7.461h.005l16.657-.011 23.309 23.277c-6.45 14.726-21.156 25.044-38.234 25.044h-121.095c-13.11 0-24.616-8.836-27.982-21.487-1.554-5.84-5.769-10.656-11.273-12.884l-41.001-16.595c-16.348-6.616-26.911-22.288-26.911-39.924 0-13.716 6.617-26.728 17.701-34.807l40.979-29.868c11.579-8.44 24.442-14.459 38.037-17.916-.002.053.013.106-.001.159l-8.59 33.737-11.655 4.645c-3.83 1.526-5.698 5.869-4.172 9.699 2.19 2.866 3.717 5.849 9.699 4.171l10.31-4.109 10.112 11.436c2.73 2.061 5.157 4.121 10.539.646 3.089-2.732 3.379-7.449.647-10.539l-10.974-12.409 8.553-33.595c.554-2.175.627-4.405.257-6.552 4.22-.482 8.489-.732 12.793-.732h34.456c7.15 0 14.333.695 21.349 2.067 4.048.797 7.969-1.848 8.76-5.895.791-4.046-1.849-7.969-5.895-8.759-7.958-1.556-16.105-2.344-24.214-2.344h-34.456c-26.902 0-52.613 8.376-74.352 24.222l-40.978 29.868c-4.117 3.001-7.756 6.521-10.897 10.412h-35.377c-1.574.127-3.285.279-5.279 2.186l-110.774 110.774c-.913.985-2.217 2.785-2.186 5.28v294.108c0 19.382 15.769 35.151 35.151 35.151h17.387c4.123 0 7.466-3.342 7.466-7.466s-3.343-7.466-7.466-7.466h-17.387c-11.149 0-20.219-9.07-20.219-20.219v-286.643h79.065c17.484 0 31.708-14.224 31.708-31.708v-79.065h19.162c-2.716 6.775-4.192 14.07-4.192 21.529 0 23.751 14.226 44.855 36.241 53.765l41.001 16.595c1.195.484 2.086 1.534 2.444 2.882 5.104 19.182 22.545 32.579 42.412 32.579h48.552l11.833 17.388c.438.644.974 1.215 1.589 1.693l20.268 15.759c3.305 2.401 8.959 3.964 14.516.459 4.441-3.022 6.409-8.517 4.898-13.672l-6.341-21.628h25.781c31.24 0 56.656-25.415 56.656-56.656v-23.9c.003-34.424-14.308-67.773-39.262-91.491zm-290.49 123.763c0 9.251-7.526 16.776-16.776 16.776h-68.507l85.283-85.283zm232.438 50.606 4.633 15.804-13-10.109-5.455-8.015h12.243z"/><path d="m248.205 85.91c0-4.124-3.343-7.466-7.466-7.466s-7.466 3.342-7.466 7.466v7.025c0 4.308-1.678 8.359-4.724 11.405l-9.265 9.265c-2.916 2.916-2.916 7.643 0 10.559 2.334 2.153 6.682 3.385 10.558 0 0 0 10.962-11.078 11.723-12.043l15.315 9.864c1.251.805 2.651 1.19 4.036 1.19 2.453 0 4.856-1.208 6.284-3.425 2.232-3.467 1.232-8.086-2.234-10.319l-17.234-11.1c.308-1.765.474-3.568.474-5.397v-7.024z"/><path d="m352.347 94.602c-4.123 0-7.466 3.342-7.466 7.466v9.792l-17.09-.611c-2.398-.087-4.771.086-7.089.49l-20.354-12.253c-3.534-2.128-8.121-.987-10.247 2.546s-.987 8.12 2.546 10.247l11.819 7.115-18.128 15.489c-3.135 2.678-3.505 7.391-.826 10.526 2.679 3.136 7.391 3.504 10.526.826l18.144-15.503c3.643-3.113 8.289-4.723 13.076-4.562l18.262.653c1.186.043 2.315.577 3.098 1.468l15.499 17.623-6.831 16.178c-1.604 3.798.175 8.178 3.974 9.782 2.7 1.056 7.503.622 9.782-3.974l6.233-14.763 15.827 3.508c3.122.701 7.456-1.015 8.905-5.673.892-4.026-1.648-8.012-5.673-8.905l-19.52-4.327-16.983-19.31c-.005-.006-.012-.011-.017-.017v-16.345c-.001-4.124-3.344-7.466-7.467-7.466z"/></g></g></svg>